<svg width="500" height="500" viewBox="0 0 500 500" fill="none" xmlns="http://www.w3.org/2000/svg">
<rect width="500" height="500" fill="#51A2FF"/>
<path d="M91.6444 178.958C89.2144 175.618 88 172.582 88 169.85C88 165.296 90.1255 161.35 94.3789 158.01C98.6322 154.671 103.037 153 107.594 153C110.633 153 113.366 153.91 115.797 155.733C118.531 157.555 120.809 159.832 122.632 162.563C124.456 164.993 126.126 167.724 127.645 170.761C129.164 173.493 130.531 175.922 131.747 178.048C136.911 176.225 142.379 174.707 148.151 173.493C153.924 172.279 160.304 171.672 167.29 171.672C173.367 171.672 179.746 172.279 186.429 173.493C193.417 174.404 200.557 176.984 207.848 181.235C213.923 178.199 220.911 175.922 228.81 174.404C236.708 172.886 244.911 172.128 253.417 172.128C259.189 172.128 265.721 172.582 273.012 173.493C280.303 174.404 287.139 177.44 293.518 182.601C299.898 187.459 305.214 195.2 309.468 205.827C313.721 216.149 315.848 230.721 315.848 249.545C315.848 258.652 315.696 267.456 315.392 275.957C315.088 284.459 314.177 292.048 312.658 298.727C311.443 305.103 309.468 310.264 306.734 314.21C304 318.158 300.203 320.131 295.342 320.131C291.392 320.131 287.443 318.917 283.494 316.488C279.848 314.059 278.025 310.72 278.025 306.469C278.025 301.308 278.633 294.932 279.848 287.343C281.063 279.752 281.67 272.011 281.67 264.117C281.67 254.098 281.519 245.294 281.214 237.705C280.911 230.114 279.695 223.891 277.57 219.033C275.443 213.872 272.253 210.077 267.999 207.648C263.747 205.219 257.67 204.004 249.771 204.004C241.569 204.004 233.67 205.371 226.076 208.103L227.443 213.568C228.354 218.123 228.962 223.587 229.265 229.963C229.873 236.034 230.176 242.562 230.176 249.545C230.176 257.134 230.176 265.18 230.176 273.681C230.176 281.878 229.721 289.468 228.81 296.45C227.898 303.129 226.076 308.746 223.341 313.3C220.911 317.855 217.114 320.131 211.95 320.131C206.784 320.131 202.379 318.614 198.733 315.577C195.392 312.541 193.72 308.595 193.72 303.737C193.72 295.235 194.177 285.369 195.088 274.136C196 262.903 196.455 252.732 196.455 243.625C196.455 231.48 194.328 221.917 190.076 214.934C185.823 207.648 177.468 204.004 165.012 204.004C158.025 204.004 151.189 205.219 144.506 207.648V208.103C144.809 215.997 144.962 224.497 144.962 233.606C145.265 242.41 145.417 251.366 145.417 260.474C145.417 268.671 145.417 276.413 145.417 283.7C145.417 290.986 144.809 297.361 143.595 302.826C142.379 308.29 140.252 312.692 137.215 316.032C134.48 319.372 130.227 321.042 124.456 321.042C120.202 320.435 116.708 318.917 113.974 316.488C111.24 314.059 109.873 310.871 109.873 306.924C109.873 297.817 110.177 288.253 110.785 278.234C111.392 268.215 111.696 257.438 111.696 245.902C111.696 240.133 111.544 234.972 111.24 230.418C111.24 225.864 111.088 221.461 110.785 217.211C107.442 212.05 104.404 206.281 101.67 199.907C99.24 193.226 95.8978 186.244 91.6444 178.958ZM411.544 323.775C410.025 331.364 406.987 337.133 402.431 341.079C397.873 345.026 392.405 347 386.025 347C383.595 347 380.709 346.544 377.366 345.634C374.025 345.026 370.835 343.66 367.797 341.535C365.064 339.714 362.632 336.981 360.506 333.338C358.379 329.998 357.316 325.596 357.316 320.131C357.316 310.416 360.051 303.433 365.519 299.183C370.988 294.629 378.126 292.351 386.937 292.351C395.747 292.351 402.126 295.084 406.076 300.549C410.025 306.013 412 312.238 412 319.22C412 319.827 411.848 320.586 411.544 321.497C411.544 322.408 411.544 323.167 411.544 323.775Z" fill="white"/>
</svg>
